<svg width="20" height="20" viewBox="0 0 20 20" fill="none" xmlns="http://www.w3.org/2000/svg">
<path d="M15 6.66667H14.1666V5C14.1666 2.7 12.3 0.833336 9.99998 0.833336C7.69998 0.833336 5.83331 2.7 5.83331 5V6.66667H4.99998C4.08331 6.66667 3.33331 7.41667 3.33331 8.33334V16.6667C3.33331 17.5833 4.08331 18.3333 4.99998 18.3333H15C15.9166 18.3333 16.6666 17.5833 16.6666 16.6667V8.33334C16.6666 7.41667 15.9166 6.66667 15 6.66667ZM9.99998 14.1667C9.08331 14.1667 8.33331 13.4167 8.33331 12.5C8.33331 11.5833 9.08331 10.8333 9.99998 10.8333C10.9166 10.8333 11.6666 11.5833 11.6666 12.5C11.6666 13.4167 10.9166 14.1667 9.99998 14.1667ZM12.5833 6.66667H7.41665V5C7.41665 3.575 8.57498 2.41667 9.99998 2.41667C11.425 2.41667 12.5833 3.575 12.5833 5V6.66667Z" fill="#A5B0C1"/>
</svg>
